<svg width="180" height="62" viewBox="0 0 180 62" fill="none" xmlns="http://www.w3.org/2000/svg">
<path d="M103.586 55.1424L103.308 53.1816H103.167C101.996 54.6706 100.511 55.4146 98.7105 55.4134C97.8439 55.4326 96.9837 55.2614 96.1906 54.9118C95.3974 54.5622 94.6907 54.0428 94.1203 53.3902C92.901 52.0413 92.2914 50.2968 92.2914 48.1565C92.2914 46.0162 92.901 44.2717 94.1203 42.9228C94.691 42.2705 95.3977 41.7512 96.1908 41.4017C96.9839 41.0521 97.844 40.8807 98.7105 40.8996C100.517 40.8996 102.002 41.6441 103.167 43.1332H103.308V35.6H105.404V55.1424H103.586ZM95.6872 51.9873C96.563 52.9748 97.6148 53.468 98.8424 53.4668C100.07 53.4656 101.121 52.9724 101.996 51.9873C102.87 51.0021 103.308 49.7275 103.308 48.1636C103.308 46.5997 102.87 45.3252 101.996 44.34C101.121 43.3548 100.07 42.8616 98.8424 42.8604C97.6148 42.8593 96.563 43.3524 95.6872 44.34C94.8137 45.3275 94.377 46.6021 94.377 48.1636C94.377 49.7252 94.8149 50.9985 95.6908 51.9837L95.6872 51.9873Z" fill="black"/>
<path d="M109.451 38.2524V35.8798H111.823V38.2524H109.451ZM109.591 55.1389V41.183H111.684V55.1424L109.591 55.1389Z" fill="black"/>
<path d="M115.453 56.2548H117.545C117.619 57.0356 118.019 57.6963 118.745 58.237C119.471 58.7778 120.467 59.0475 121.733 59.0463C122.996 59.0463 124.01 58.6928 124.774 57.9857C125.538 57.2786 125.919 56.3279 125.918 55.1336V52.6273H125.779C124.625 53.9345 123.136 54.5851 121.312 54.5792C119.488 54.5732 117.958 53.9363 116.722 52.6683C115.503 51.3943 114.893 49.752 114.893 47.7412C114.893 45.7304 115.503 44.0887 116.722 42.8159C117.939 41.5408 119.469 40.9032 121.312 40.9032C122.187 40.8989 123.052 41.0946 123.84 41.4754C124.594 41.8287 125.257 42.3494 125.779 42.9977H125.918L126.198 41.1831H128.007V55.1425C128.007 56.9084 127.445 58.3268 126.319 59.3975C125.194 60.4682 123.664 61.003 121.729 61.0018C119.868 61.0018 118.374 60.5318 117.248 59.5918C116.121 58.6518 115.523 57.5395 115.453 56.2548ZM118.257 51.2725C118.672 51.7 119.169 52.0398 119.718 52.2718C120.267 52.5038 120.857 52.6234 121.453 52.6234C122.049 52.6234 122.639 52.5038 123.188 52.2718C123.737 52.0398 124.234 51.7 124.649 51.2725C125.494 50.3705 125.917 49.1934 125.918 47.7412C125.919 46.289 125.496 45.1125 124.649 44.2117C124.234 43.7842 123.737 43.4444 123.188 43.2124C122.639 42.9803 122.049 42.8608 121.453 42.8608C120.857 42.8608 120.267 42.9803 119.718 43.2124C119.169 43.4444 118.672 43.7842 118.257 44.2117C117.411 45.1137 116.987 46.2902 116.987 47.7412C116.987 49.1922 117.411 50.3693 118.257 51.2725Z" fill="black"/>
<path d="M131.918 38.2524V35.8798H134.291V38.2524H131.918ZM132.057 55.1389V41.183H134.152V55.1424L132.057 55.1389Z" fill="black"/>
<path d="M139.175 52.7662V43.1403H136.943V41.1794H139.175V37.2756H141.27V41.183H144.478V43.1438H141.27V52.3544C141.27 52.9118 141.548 53.1911 142.106 53.1923H144.478V55.1531H141.687C140.906 55.1531 140.292 54.9386 139.845 54.5096C139.399 54.0806 139.175 53.4995 139.175 52.7662Z" fill="black"/>
<path d="M156.201 55.1424L155.923 53.4668H155.782C155.51 53.851 155.17 54.182 154.778 54.4437C153.921 55.0961 152.814 55.4217 151.457 55.4205C150.005 55.4205 148.828 55.0206 147.926 54.2208C147.024 53.4211 146.572 52.3789 146.571 51.0942C146.571 49.6978 147.032 48.6051 147.953 47.816C148.874 47.0269 150.274 46.6312 152.154 46.6288H155.923V46.2099C155.923 45.1499 155.63 44.3269 155.044 43.741C154.458 43.1552 153.634 42.8616 152.573 42.8605C151.568 42.8605 150.754 43.0886 150.131 43.545C149.508 44.0013 149.159 44.564 149.085 45.2331H146.99C147.065 44.0447 147.6 43.0262 148.594 42.1777C149.589 41.3292 150.915 40.9056 152.573 40.9067C154.267 40.9067 155.597 41.372 156.564 42.3025C157.532 43.233 158.015 44.5355 158.015 46.2099V55.1424H156.201ZM155.923 49.1405V48.5825H152.154C150.966 48.5825 150.086 48.8149 149.516 49.2795C149.243 49.4952 149.024 49.7714 148.876 50.0863C148.728 50.4013 148.655 50.7464 148.664 51.0942C148.65 51.4191 148.709 51.743 148.836 52.0424C148.963 52.3417 149.155 52.6091 149.398 52.8251C149.881 53.2529 150.57 53.4668 151.464 53.4668C152.861 53.4668 153.953 53.0806 154.743 52.3081C155.532 51.5357 155.925 50.4786 155.923 49.1369V49.1405Z" fill="black"/>
<path d="M162.055 55.1424V35.6H164.149V55.1424H162.055Z" fill="black"/>
<path d="M41.8479 24.4018V0.336914H52.6753C54.9428 0.336914 56.7699 1.07015 58.1568 2.53662C59.5436 4.00309 60.237 5.96393 60.237 8.41915C60.237 10.872 59.5436 12.8328 58.1568 14.3017C56.7699 15.7705 54.9428 16.5026 52.6753 16.4978H46.3168V24.4018H41.8479ZM46.3168 12.2H52.5024C53.4876 12.2 54.2784 11.8678 54.875 11.2035C55.4716 10.5392 55.7687 9.6111 55.7663 8.41915C55.7663 7.23076 55.4692 6.30322 54.875 5.63653C54.2808 4.96985 53.49 4.6371 52.5024 4.63829H46.3168V12.2Z" fill="black"/>
<path d="M66.7666 24.4018V0.336914H77.7651C79.9209 0.336914 81.7201 1.08738 83.1628 2.58832C84.6055 4.08925 85.3269 6.03108 85.3269 8.4138C85.3269 10.6599 84.6453 12.4876 83.2822 13.897C81.9788 15.2791 80.1809 16.0886 78.2821 16.1484L86.0149 24.3964H80.3428L72.6099 16.1484H71.2355V24.3964L66.7666 24.4018ZM71.2355 12.0289H77.594C78.0275 12.0276 78.4556 11.9334 78.8495 11.7526C79.2434 11.5718 79.594 11.3086 79.8775 10.9807C80.5279 10.2887 80.8801 9.36861 80.8579 8.41915C80.8579 7.32107 80.5371 6.41612 79.8953 5.70427C79.6128 5.36862 79.2603 5.09893 78.8624 4.91415C78.4645 4.72937 78.0309 4.63399 77.5922 4.63472H71.2355V12.0289Z" fill="black"/>
<path d="M94.5376 3.50456C96.7836 1.16819 99.5567 0 102.857 0C106.157 0 108.93 1.16819 111.174 3.50456C113.418 5.84212 114.541 8.79824 114.542 12.3729C114.543 15.9476 113.421 18.9037 111.174 21.2413C108.928 23.5788 106.156 24.747 102.857 24.7458C99.5579 24.7446 96.7848 23.5764 94.5376 21.2413C92.2915 18.9025 91.1691 15.9464 91.1703 12.3729C91.1715 8.79943 92.2939 5.84331 94.5376 3.50456ZM97.666 18.2323C99.0172 19.7118 100.748 20.451 102.857 20.4498C104.966 20.4486 106.695 19.7094 108.042 18.2323C109.394 16.7539 110.07 14.8008 110.071 12.3729C110.072 9.94503 109.396 7.99132 108.042 6.51178C106.69 5.03342 104.96 4.29484 102.853 4.29602C100.746 4.29721 99.016 5.0358 97.6625 6.51178C96.3101 7.99013 95.6339 9.94384 95.6339 12.3729C95.6339 14.802 96.3113 16.7551 97.666 18.2323Z" fill="black"/>
<path d="M126.403 24.4018L118.155 0.336914H123.146L129.332 18.8972H130.02L136.207 0.336914H141.198L132.949 24.4018H126.403Z" fill="black"/>
<path d="M28.1006 0.344055H21.571L12.9772 24.4036H17.9613L19.1093 21.1557L21.6245 13.9523L24.4927 5.49929H25.179L27.3181 11.8025L30.7157 21.5907L31.7103 24.4036H36.6927L28.1006 0.344055Z" fill="black"/>
<path d="M161.286 24.4036H166.27L157.677 0.344055H151.147L142.555 24.4036H147.537L148.831 20.7422L151.259 13.7794L154.069 5.49929H154.757L157.655 14.0468L159.891 20.4498L161.286 24.4036Z" fill="black"/>
<path d="M179.364 16.6297H150.398L151.855 12.3729H179.364V16.6297Z" fill="#00DAE7"/>
<path d="M0 16.6297H28.9652L27.5088 12.3729H0V16.6297Z" fill="#00DAE7"/>
</svg>
